<?xml version="1.0" standalone="no"?>
<!DOCTYPE svg PUBLIC "-//W3C//DTD SVG 20010904//EN"
 "http://www.w3.org/TR/2001/REC-SVG-20010904/DTD/svg10.dtd">
<svg version="1.0" xmlns="http://www.w3.org/2000/svg"
 width="226.000000pt" height="196.000000pt" viewBox="0 0 226.000000 196.000000"
 preserveAspectRatio="xMidYMid meet">

<g transform="translate(0.000000,196.000000) scale(0.100000,-0.100000)"
fill="#000000" stroke="none">
<path d="M15 1944 c-9 -9 -14 -23 -11 -30 3 -8 105 -185 226 -395 121 -210
220 -383 220 -385 0 -2 -94 -4 -209 -4 -177 0 -212 -2 -225 -16 -13 -12 -16
-39 -16 -130 0 -64 5 -124 10 -135 10 -18 24 -19 314 -19 l304 0 235 -407
c129 -225 242 -412 251 -418 11 -7 21 -7 32 0 14 9 1113 1900 1114 1917 0 4
-7 14 -16 22 -14 14 -129 16 -1114 16 -1002 0 -1100 -1 -1115 -16z m1763 -283
c-1 -4 -70 -126 -153 -269 l-150 -261 -210 -1 c-215 0 -235 -3 -235 -39 0 -17
124 -234 143 -249 7 -6 38 -12 68 -14 l56 -3 -81 -142 c-45 -78 -83 -142 -86
-142 -4 0 -640 1098 -648 1120 -2 5 286 9 648 9 360 0 650 -4 648 -9z"/>
<path d="M1997 1093 c-13 -21 -47 -79 -76 -130 -76 -134 -78 -133 144 -133
162 0 175 1 185 19 5 11 10 71 10 135 0 148 2 146 -136 146 l-104 0 -23 -37z"/>
</g>
</svg>
